<?xml version="1.0" standalone="no"?>
<!DOCTYPE svg PUBLIC "-//W3C//DTD SVG 20010904//EN"
 "http://www.w3.org/TR/2001/REC-SVG-20010904/DTD/svg10.dtd">
<svg version="1.0" xmlns="http://www.w3.org/2000/svg"
 width="512.000000pt" height="512.000000pt" viewBox="0 0 512.000000 512.000000"
 preserveAspectRatio="xMidYMid meet">

<g transform="translate(0.000000,512.000000) scale(0.100000,-0.100000)"
fill="#000000" stroke="none">
<path d="M3471 4625 c-73 -16 -169 -59 -238 -106 -115 -79 -259 -242 -339
-385 -20 -35 -37 -64 -39 -64 -2 0 -26 42 -53 93 -58 107 -80 130 -123 129
-42 -1 -59 -19 -141 -142 -125 -188 -227 -421 -291 -666 l-34 -129 -154 3
c-515 12 -1032 -127 -1412 -378 -120 -79 -138 -97 -139 -139 -1 -43 22 -65
129 -123 51 -27 93 -51 93 -53 0 -2 -29 -19 -64 -39 -156 -87 -332 -248 -405
-369 -132 -223 -132 -451 0 -674 73 -121 249 -282 405 -369 35 -20 64 -37 64
-39 0 -2 -42 -26 -93 -54 -108 -58 -130 -79 -129 -122 1 -39 16 -56 106 -117
557 -383 1382 -504 2101 -307 165 45 361 124 496 199 l111 62 62 -13 c33 -8
111 -16 171 -19 241 -13 484 62 705 217 101 71 281 253 360 367 378 538 512
1293 355 1997 -67 302 -184 580 -337 801 -61 90 -78 105 -117 106 -43 1 -65
-22 -123 -129 -27 -51 -51 -93 -53 -93 -2 0 -19 29 -39 64 -80 143 -224 306
-339 385 -153 104 -329 142 -496 106z m271 -172 c163 -55 314 -203 440 -428
79 -142 78 -124 8 -276 -135 -291 -243 -579 -331 -884 -22 -77 -50 -171 -61
-209 l-20 -69 -26 34 c-86 113 -333 333 -430 383 -23 12 -33 33 -66 132 -47
145 -162 432 -246 612 l-61 134 16 41 c9 23 43 87 76 142 197 331 452 472 701
388z m-906 -718 c80 -168 157 -349 204 -475 16 -41 33 -87 39 -103 l11 -27
-38 16 c-102 44 -220 87 -314 113 -110 32 -295 71 -334 71 -30 0 -30 -1 1 121
47 185 148 426 236 563 l31 49 45 -84 c24 -46 78 -156 119 -244z m1742 248
c205 -347 317 -829 298 -1278 -38 -906 -513 -1629 -1136 -1731 -83 -14 -212
-19 -222 -9 -2 3 46 55 107 117 346 351 459 778 314 1188 -17 47 -32 96 -35
110 -11 55 182 697 289 965 112 279 322 720 337 710 4 -3 26 -35 48 -72z
m-2218 -808 c469 -72 850 -243 1121 -503 127 -122 186 -200 255 -337 79 -160
97 -237 97 -415 0 -178 -18 -255 -97 -415 -69 -137 -128 -215 -255 -337 -278
-268 -674 -441 -1166 -510 -117 -16 -502 -16 -625 0 -222 30 -446 88 -630 164
-109 45 -260 124 -300 156 l-23 19 194 95 c480 237 756 338 1429 519 125 34
697 175 830 205 139 32 170 51 170 104 0 53 -31 72 -170 104 -480 108 -1166
291 -1465 391 -277 93 -716 282 -923 397 l-64 36 29 20 c53 37 218 121 319
160 186 74 411 131 604 152 52 5 111 12 130 14 75 9 440 -4 540 -19z m-1277
-679 c326 -148 569 -237 947 -345 189 -54 563 -152 753 -197 64 -16 117 -31
117 -34 0 -3 -106 -31 -235 -63 -735 -180 -1178 -325 -1614 -527 -152 -70
-134 -71 -276 8 -228 127 -382 288 -433 452 -21 71 -21 189 0 260 54 175 230
349 483 479 44 23 83 41 88 41 4 0 80 -33 170 -74z"/>
</g>
</svg>
